<svg xmlns="http://www.w3.org/2000/svg" version="1.1" xmlns:xlink="http://www.w3.org/1999/xlink" xmlns:svgjs="http://svgjs.dev/svgjs" width="1440" height="560" preserveAspectRatio="none" viewBox="0 0 1440 560"><g mask="url(&quot;#SvgjsMask1001&quot;)" fill="none"><path d="M975.24 206.7a47.42 47.42 0 1 0-81.88-47.87z" fill="#d3b714"></path><path d="M1070.11 59.9a8.97 8.97 0 1 0-8.63-15.73z" stroke="#d3b714"></path><path d="M897.76 48.29a33.67 33.67 0 1 0 55.1-38.7z" stroke="#037b0b"></path><path d="M1060.52 164.8L1111.94 164.8L1111.94 216.22L1060.52 216.22z" stroke="#e73635"></path><path d="M1024.23 20.96L1056.63 20.96L1056.63 39.14L1024.23 39.14z" fill="#037b0b"></path><path d="M1033.41 34.92L1069.93 34.92L1069.93 71.44L1033.41 71.44z" stroke="#e73635"></path><path d="M804.01 229.58a32.37 32.37 0 1 0 37.13 53.03z" fill="#037b0b"></path><path d="M1207.05 495.2L1226.47 495.2L1226.47 514.62L1207.05 514.62z" fill="#e73635"></path><path d="M157.32 295.86L174.82 295.86L174.82 310.45L157.32 310.45z" stroke="#e73635"></path><path d="M152.63 311.86L204.04 311.86L204.04 344.64L152.63 344.64z" stroke="#e73635"></path><path d="M332.74 5.4 a45.52 45.52 0 1 0 91.04 0 a45.52 45.52 0 1 0 -91.04 0z" fill="#e73635"></path><path d="M1235.67 397.28 a39.79 39.79 0 1 0 79.58 0 a39.79 39.79 0 1 0 -79.58 0z" stroke="#d3b714"></path><path d="M1349.91 372.8L1399.5 372.8L1399.5 424.57L1349.91 424.57z" stroke="#e73635"></path><path d="M1066.06 200.94 a21.29 21.29 0 1 0 42.58 0 a21.29 21.29 0 1 0 -42.58 0z" stroke="#037b0b"></path><path d="M449.98 432.24 a44.78 44.78 0 1 0 89.56 0 a44.78 44.78 0 1 0 -89.56 0z" fill="#e73635"></path><path d="M828.09 520.84a24.19 24.19 0 1 0-37 31.17z" stroke="#e73635"></path><path d="M533 98.35a7.43 7.43 0 1 0-12.58-7.9z" stroke="#e73635"></path><path d="M1106.09 222.84a4.98 4.98 0 1 0-7.21 6.87z" stroke="#037b0b"></path><path d="M775.94 42.82L828.43 42.82L828.43 85.12L775.94 85.12z" fill="#d3b714"></path><path d="M312.55 86.51L365.38 86.51L365.38 139.34L312.55 139.34z" stroke="#d3b714"></path><path d="M1053.68 526.29L1070.55 526.29L1070.55 572.42L1053.68 572.42z" stroke="#d3b714"></path><path d="M66.01 550.69 a53.65 53.65 0 1 0 107.3 0 a53.65 53.65 0 1 0 -107.3 0z" fill="#e73635"></path><path d="M491.28 215.43 a51.91 51.91 0 1 0 103.82 0 a51.91 51.91 0 1 0 -103.82 0z" stroke="#e73635"></path><path d="M832.47-0.19a49.38 49.38 0 1 0 88.56 43.7z" stroke="#037b0b"></path><path d="M646.82 276.65L684.31 276.65L684.31 314.14L646.82 314.14z" fill="#037b0b"></path><path d="M49.74 434.32 a34.07 34.07 0 1 0 68.14 0 a34.07 34.07 0 1 0 -68.14 0z" stroke="#037b0b"></path><path d="M589.96 319.35L604.26 319.35L604.26 333.65L589.96 333.65z" fill="#037b0b"></path><path d="M396.98 470.31 a38.63 38.63 0 1 0 77.26 0 a38.63 38.63 0 1 0 -77.26 0z" stroke="#037b0b"></path><path d="M28.31 145.57a17.38 17.38 0 1 0-20.9 27.77z" fill="#037b0b"></path><path d="M484.77 559.94 a5.65 5.65 0 1 0 11.3 0 a5.65 5.65 0 1 0 -11.3 0z" stroke="#e73635"></path><path d="M604.53 124.83a17.09 17.09 0 1 0 11.89 32.04z" fill="#e73635"></path><path d="M1276.73 556.45L1310.15 556.45L1310.15 589.87L1276.73 589.87z" fill="#d3b714"></path><path d="M405.33 220.54a27.87 27.87 0 1 0 45.4 32.35z" fill="#037b0b"></path></g><defs><mask id="SvgjsMask1001"><rect width="1440" height="560" fill="#ffffff"></rect></mask></defs></svg>